# xmcd
#
# Track frame offsets:
#	150
#	15482
#	38947
#	69817
#	90485
#	109820
#	125367
#	153277
#	169909
#	208767
#	232705
#	247532
#	266530
#	288242
#
# Disc length: 4052
#
# Revision: 3
# Processed by: cddbd v1.5.1PL0 Copyright (c) Steve Scherf et al.
# Submitted via: CDValet v3.31 - Copyright (c) 1997 Greg Leichner
# Normalized: r1:DSETVAR1;r2:TSWAP
#
DISCID=a60fd20e
DTITLE=Various Artist - Deep Soul - Volume Two
DYEAR=1900
DGENRE=
TTITLE0=Johnny Taylor - Cheaper To Keep Her
TTITLE1=Curtis Mayfield - Future Shock
TTITLE2=Donny Hathaway - The Ghetto
TTITLE3=Isaac Hayes - Joy (Part 1)
TTITLE4=Blue Magic - Spell
TTITLE5=Latimore - Let's Straighten It Out
TTITLE6=Dells - Stay In My Corner
TTITLE7=Lamont Dozier - Fish Ain't Bitin'
TTITLE8=Harold Melvin and The Blue Notes - I Miss You
TTITLE9=Tower Of Power - You're Still A Young Man
TTITLE10=Tavares - Check It Out
TTITLE11=Friends Of Distinction - Going In Circles
TTITLE12=Bloodstone - Outside Woman
TTITLE13=Charles Wright and the Watts 103rd Street Rhythm Band - Do Your Thing
EXTD=
EXTT0=
EXTT1=
EXTT2=
EXTT3=
EXTT4=
EXTT5=
EXTT6=
EXTT7=
EXTT8=
EXTT9=
EXTT10=
EXTT11=
EXTT12=
EXTT13=
PLAYORDER=
